<?xml version="1.0" encoding="UTF-8"?><svg id="Ebene_2" xmlns="http://www.w3.org/2000/svg" viewBox="0 0 2067.63 1547.52"><defs><style>.cls-1{fill:#ff7d71;}.cls-2{fill:#342d45;}.cls-3{fill:#cfd2d3;}.cls-4{fill:#e5e7e8;}.cls-5{fill:#735ea5;}.cls-6{fill:#604897;}.cls-7{fill:#ffa993;}.cls-8{fill:#443b59;}.cls-9{fill:#9387ab;}.cls-10{fill:#e6e8e8;}.cls-11{fill:#ff7167;}.cls-12{fill:#ffb29e;}.cls-13{fill:#251e3b;}.cls-14{fill:#686080;}.cls-15{fill:#a2a9ad;}</style></defs><g id="Layer_1"><g><path class="cls-5" d="M2067.63,207.9v401.3c0,22.87-18.71,41.58-41.58,41.58h-438.61c-22.87,0-41.58-18.71-41.58-41.58V207.9c0-22.87,18.71-41.57,41.58-41.57h438.61c22.87,0,41.58,18.71,41.58,41.57Z"/><path class="cls-13" d="M2067.63,207.9v46.11h-521.78v-46.11c0-22.87,18.71-41.57,41.58-41.57h438.61c22.87,0,41.58,18.71,41.58,41.57Z"/><path class="cls-5" d="M2005.27,209.95c0,8.04,6.51,14.55,14.55,14.55s14.55-6.52,14.55-14.55-6.52-14.55-14.55-14.55-14.55,6.52-14.55,14.55Z"/><path class="cls-5" d="M1950.7,209.95c0,8.04,6.51,14.55,14.55,14.55s14.55-6.52,14.55-14.55-6.51-14.55-14.55-14.55-14.55,6.52-14.55,14.55Z"/><path class="cls-3" d="M1771.76,209.95c0,8-9,14.55-20,14.55h-153.32c-11.01,0-20-6.55-20-14.55s8.99-14.55,20-14.55h153.32c11,0,20,6.55,20,14.55Z"/><g><path class="cls-4" d="M1895.79,322.79h-289.64c-5.74,0-10.4-4.65-10.4-10.4s4.66-10.39,10.4-10.39h289.64c5.74,0,10.39,4.65,10.39,10.39s-4.65,10.4-10.39,10.4Z"/><path class="cls-4" d="M1836.2,371.05h-174.62c-5.74,0-10.39-4.65-10.39-10.39s4.65-10.4,10.39-10.4h174.62c5.74,0,10.39,4.65,10.39,10.4s-4.65,10.39-10.39,10.39Z"/><path class="cls-4" d="M1940.13,419.31h-278.55c-5.74,0-10.39-4.65-10.39-10.39s4.65-10.4,10.39-10.4h278.55c5.74,0,10.39,4.65,10.39,10.4s-4.65,10.39-10.39,10.39Z"/><path class="cls-4" d="M1895.79,467.57h-157.99c-5.74,0-10.39-4.65-10.39-10.39s4.65-10.39,10.39-10.39h157.99c5.74,0,10.39,4.65,10.39,10.39s-4.65,10.39-10.39,10.39Z"/><path class="cls-4" d="M1988.64,515.83h-327.06c-5.74,0-10.39-4.65-10.39-10.4s4.65-10.39,10.39-10.39h327.06c5.74,0,10.39,4.65,10.39,10.39s-4.65,10.4-10.39,10.4Z"/><path class="cls-4" d="M1748.89,564.1h-142.74c-5.74,0-10.4-4.65-10.4-10.39s4.66-10.4,10.4-10.4h142.74c5.73,0,10.39,4.65,10.39,10.4s-4.66,10.39-10.39,10.39Z"/><path class="cls-4" d="M1895.79,612.35h-234.21c-5.74,0-10.39-4.65-10.39-10.39s4.65-10.39,10.39-10.39h234.21c5.74,0,10.39,4.65,10.39,10.39s-4.65,10.39-10.39,10.39Z"/></g></g><path class="cls-13" d="M317.15,622.93c0-5.55-.3-11.05-.95-16.45l30.9-17.85c-7.7-39.1-28.3-73.6-57.15-98.8l-30.85,17.8c-8.75-6.55-18.3-12.1-28.45-16.45v-35.65c-17.9-6.15-37.15-9.45-57.1-9.45s-39.15,3.3-57.05,9.4v35.7c-10.15,4.35-19.7,9.9-28.45,16.45l-30.9-17.85c-28.85,25.25-49.45,59.75-57.15,98.85l30.95,17.9c-.65,5.4-.95,10.85-.95,16.4s.3,11.05,.95,16.4L.05,657.18c7.65,39.15,28.25,73.65,57.15,98.85l30.85-17.8c8.75,6.5,18.3,12.05,28.45,16.45v35.65c17.9,6.1,37.1,9.4,57.05,9.4s39.2-3.3,57.1-9.45v-35.6c10.15-4.4,19.7-9.95,28.45-16.45l30.85,17.8c28.85-25.25,49.45-59.7,57.1-98.85l-30.85-17.85c.65-5.35,.95-10.85,.95-16.4Zm-60.5,17.9c-3.75,17.7-13.05,33.35-26,45.05-8.85,8.05-19.4,14.25-31.05,18-8.2,2.65-16.95,4.05-26.05,4.05s-17.85-1.4-26.05-4.05c-11.6-3.75-22.15-9.9-31-17.95-12.95-11.7-22.25-27.4-26.1-45.1-1.2-5.75-1.85-11.75-1.85-17.9s.65-12.15,1.9-17.95c3.8-17.7,13.1-33.35,26.05-45.05,8.85-8.05,19.4-14.2,31.05-17.95,8.2-2.65,16.95-4.05,26-4.05s17.85,1.4,26.05,4.05c11.65,3.75,22.2,9.95,31.05,18,12.9,11.7,22.2,27.35,26,45,1.25,5.8,1.9,11.8,1.9,17.95s-.65,12.15-1.9,17.9Z"/><rect class="cls-6" x="340.35" y="74.43" width="299.98" height="162.25" rx="40" ry="40"/><g><path class="cls-4" d="M548.84,208.68c-2.48,0-4.97-.92-6.91-2.77-3.99-3.82-4.13-10.15-.31-14.14l34.64-36.21-34.64-36.21c-3.82-3.99-3.68-10.32,.31-14.14,3.99-3.82,10.32-3.67,14.14,.31l41.25,43.12c3.7,3.86,3.7,9.96,0,13.82l-41.25,43.12c-1.97,2.05-4.59,3.09-7.23,3.09Z"/><path class="cls-4" d="M431.86,208.68c-2.63,0-5.26-1.03-7.23-3.09l-41.25-43.12c-3.7-3.86-3.7-9.96,0-13.82l41.25-43.12c3.82-3.99,10.15-4.14,14.14-.31,3.99,3.82,4.13,10.15,.31,14.14l-34.64,36.21,34.64,36.21c3.82,3.99,3.68,10.32-.31,14.14-1.94,1.85-4.43,2.77-6.91,2.77Z"/><path class="cls-4" d="M474.09,208.68c-1.17,0-2.36-.21-3.52-.64-5.17-1.95-7.78-7.72-5.83-12.88l32.5-86.25c1.94-5.17,7.72-7.78,12.88-5.83,5.17,1.95,7.78,7.72,5.83,12.88l-32.5,86.25c-1.51,4.01-5.32,6.48-9.36,6.48Z"/></g><path class="cls-9" d="M1639.72,1247.42c0,91.7-261.29,300.1-583.6,300.1s-583.6-208.4-583.6-300.09,261.29-166.04,583.6-166.04,583.6,74.34,583.6,166.03Z"/></g><g id="Layer_2"><g><path class="cls-2" d="M1368.22,994.99c40.08,2.96,237.43,67.04,242.43,122.04s-415,297.5-599.06,295c-184.06-2.5-535.94-230-523.44-284.17,12.5-54.16,145.59-126.51,227.5-132.88,102.5-7.96,652.57,0,652.57,0Z"/><path class="cls-13" d="M993.66,1296.54c27.91,6.77,76.67,44.27,94.17,54.27s93.75,56.25,100,76.25,5,78.75-37.5,96.25-185-31.25-203.75-48.75c-21.25-138.75,47.08-178.02,47.08-178.02Z"/><path class="cls-8" d="M487.82,1122.03c-14.34,21.25-18.43,106.25,.32,136.25,18.75,30,221.25,165,455,212.5-7.5-35,74.45-138.01,91.12-156.25-170.83-84.07-416.12-226.25-546.44-192.5Z"/><path class="cls-13" d="M1018.98,1332.87c-107.08-12.08-243.56,51.67-253.45,91.67-9.89,40-1.14,87.5,23.86,111.25s189.58,13.76,272.92-51.25c17.08-67.5-43.33-151.67-43.33-151.67Z"/><path class="cls-14" d="M1017.42,1352.16c-44.69-1.79-131.77,21.12-156.77,43.62,15,38.75,26.25,95,13.75,113.75,50,8.75,147.22-16.25,174.86-38.75,2.64-36.25-31.84-118.62-31.84-118.62Z"/><path class="cls-8" d="M1610.65,1117.03c19.19,32.5,30,117.5,0,147.5-30,30-350,191.67-548.33,220-30-28.34-51.67-135-43.33-151.67,133.33-101.66,435-235,591.67-215.83Z"/></g><g><path class="cls-6" d="M1350.69,862.84c5.32,67.34-28.75,75-52.5,91.25s-16.25,65-7.5,147.5c-53.75,42.5-345,106.25-506.25,20,3.75-23.75,6.25-88.75,2.5-117.5s-17.5-45-66.25-73.75c-48.75-28.75,2.5-337.5,23.75-363.75,21.25-26.25,152.5-108.75,221.25-118.75,0,0,105-6.25,147.5,0s196.25,78.75,237.5,126.25c41.25,47.5-3.75,241.25,0,288.75Z"/><path class="cls-5" d="M1203.98,1127.87c6.67-1.66,146.67-25,208.34-70,86.44-63.08-26.74-441.62-55.71-474.85,0,0-22.17-36.42-85.31-66.56-48.11,28.88-36.64,161.79-33.11,188.88,10.79,82.52,44.91,196.3,52.46,222.52-18.33,20-106.67,60-106.67,60l20,140Z"/><path class="cls-5" d="M883.98,1136.2s-59.97,2.78-116.67-16.67c-203.93-69.96-104.12-460.44-22.87-552.94,0,0,27.34-29.44,63.27-47.76,29.52,12.24,53.29,90.06,35.9,179.03-16.29,83.33-39.63,244.99-39.63,261.67,18.33,13.33,71.66,40,71.66,40l8.33,136.67Z"/><path class="cls-3" d="M1318.9,1179.53H759.06l-24.25-351.94c145.13-22.85,487.07-22.85,608.34,0l-24.25,351.94Z"/><path class="cls-10" d="M1076.48,994.99c0,20.71-16.79,37.5-37.5,37.5s-37.5-16.79-37.5-37.5,16.79-37.5,37.5-37.5,37.5,16.79,37.5,37.5Z"/><polygon class="cls-15" points="1318.9 1179.53 1318.9 1208.7 758.67 1208.7 759.06 1179.53 1318.9 1179.53"/></g><g><path class="cls-7" d="M1126.11,375.35c-2.16,22.51-4.17,78.34,10,98.34-54.17,47.5-158.33,38.33-192.5,5.83,7.5-26.67,7.5-81.67,0-99.17s88.33-30.83,88.33-30.83l94.17,25.83Z"/><path class="cls-13" d="M865.8,237.88c-66.74-158.38,32.81-163.37,32.81-163.37C920.28,1.73,1055.2-9.52,1100.27,6.18c74.17,25.83,125.34,104.91,91.5,226.28,0,0-41.71,181.94-142.33,181.63-100.94-.31-183.64-176.22-183.64-176.22Z"/><path class="cls-7" d="M1211.93,274.93c0,38.56-34.43,49.58-55.83,49.58s-15.2-34.43-15.2-56.06,2.97-43.11,24.37-43.11,46.66,10,46.66,49.58Z"/><path class="cls-7" d="M843.61,282.05c0,38.56,34.43,49.58,55.83,49.58s15.21-34.43,15.21-56.06-2.97-43.11-24.38-43.11-46.66,10-46.66,49.59Z"/><path class="cls-1" d="M1074.54,445.07c-39.26,17.78-99.18,15.55-125.89,0,.51-12.24,.8-27.65,0-36.52,31.62,10.13,125.89,36.52,125.89,36.52Z"/><path class="cls-12" d="M881.11,243.68c0,120,60,204.17,168.33,204.17s133.33-141.67,133.33-204.17-100.83-134.16-154.99-134.16c-131.67,0-146.67,134.16-146.67,134.16Z"/><path class="cls-1" d="M881.11,274.93c44.17-27.92,55.79-73.83,65.83-79.58,58.12-33.33,98.44,25.28,180-3.33,0,0,16.67,51.41,55.83,67.16,1.83-33.13-40.35-89.71-65.18-112.18-24.82-22.48-169.03-47.33-195.68,6.76-26.64,54.09-40.81,121.18-40.81,121.18Z"/><path class="cls-13" d="M881.11,274.93c32.5-21.25,48.33-68.75,50.83-87.08,73.33-54.16,128.33,15.83,200.83-5,5.84,26.67,32.5,65.99,50,76.33,3.23-20.95,14.68-55.56,5.52-78.9-9.17-23.33-20.23-105.77-164.54-109.93-144.31-4.16-165.97,88.33-162.64,116.67,3.33,28.33,20,87.92,20,87.92Z"/><ellipse class="cls-13" cx="1088.82" cy="282.53" rx="9.37" ry="15.94"/><ellipse class="cls-13" cx="986.63" cy="282.53" rx="9.37" ry="15.94"/><path class="cls-11" d="M1076.06,224.91s.06-.21,.17-.62c.14-.39,.29-1.07,.62-1.7,.61-1.36,1.63-3.18,3.24-4.81,.79-.87,1.7-1.75,2.78-2.43,1.03-.78,2.22-1.5,3.49-2.09,1.3-.52,2.66-1.09,4.12-1.35,1.45-.33,2.95-.51,4.47-.53,1.52-.01,3.05,.09,4.53,.41,1.49,.21,2.92,.74,4.26,1.3,1.36,.46,2.54,1.37,3.64,2.09,1.13,.65,2.05,1.6,2.84,2.5,1.65,1.66,2.6,3.56,3.13,4.94,.55,1.38,.72,2.28,.71,2.28l.08,.4c.05,.23-.11,.45-.33,.49-.09,.02-.18,0-.25-.03,0,0-.55-.26-1.51-.7-.95-.48-2.32-1.08-4.02-1.66-.84-.33-1.76-.66-2.76-.88-1-.24-2.03-.58-3.15-.7-2.21-.37-4.6-.58-6.98-.45-4.78-.05-9.55,1.01-12.96,2.18-3.46,1.1-5.6,2.21-5.6,2.21-.2,.11-.46,.03-.57-.18-.06-.1-.07-.2-.04-.3l.1-.38Z"/><path class="cls-11" d="M962.35,224.9s.18-.89,.73-2.19c.54-1.28,1.45-2.97,2.83-4.52,.68-.8,1.46-1.64,2.38-2.3,.92-.68,1.87-1.5,3-2.01,2.19-1.17,4.8-1.89,7.54-2.13,2.74-.19,5.66,.23,8.27,1.23,2.61,1.11,4.89,2.69,6.39,4.54,.77,.9,1.33,1.88,1.77,2.72,.46,.81,.63,1.77,.81,2.44,.3,1.42,.26,2.28,.26,2.28l-.02,.42c0,.23-.2,.41-.43,.4-.08,0-.15-.03-.21-.07,0,0-.45-.29-1.24-.8-.73-.59-1.96-1.11-3.4-1.78-1.47-.58-3.26-1.09-5.24-1.36-1.98-.23-4.12-.27-6.25-.06-4.28,.24-8.54,1.26-11.63,2.28-3.12,.97-5.13,1.79-5.13,1.79-.2,.08-.43-.01-.51-.21-.03-.07-.04-.15-.02-.22l.09-.46Z"/><path class="cls-11" d="M1056,318.98s.23,.71,.63,1.94c.36,1.19,1.1,2.9,1.87,4.97,1.59,4.15,3.83,9.71,5.04,15.87,.52,3.09,.91,6.37,0,9.72-.42,1.66-1.4,3.32-2.73,4.42-1.33,1.12-2.85,1.65-4.15,1.85-2.65,.43-4.58-.17-5.94-.39-1.32-.38-2.05-.64-2.05-.64-.41-.15-.63-.6-.48-1.02,.11-.31,.39-.51,.71-.53h.06s.75-.04,2.01-.03c1.23-.06,3.1-.14,4.83-.79,1.77-.69,2.97-1.8,3.31-3.97,.38-2.15,.07-4.94-.47-7.7-1.1-5.58-2.79-11.33-3.57-15.83-.44-2.24-.57-4.17-.66-5.55-.08-1.41,.03-2.12,.03-2.12v-.07c.08-.44,.49-.74,.93-.67,.3,.05,.55,.27,.63,.55Z"/><path class="cls-11" d="M1005.98,380.93s1.26,.52,3.41,1.54c1.07,.59,2.38,1.02,3.78,1.5,1.39,.52,2.96,1.06,4.83,1.54,1.8,.56,3.79,1,5.91,1.43,2.08,.53,4.39,.69,6.69,1.14,2.35,.26,4.78,.49,7.25,.67,2.48,.16,4.99,.24,7.52,.2,2.53,.12,5.06-.12,7.55-.2,2.46-.28,4.95-.28,7.28-.7,2.35-.32,4.63-.6,6.75-1.06,2.17-.34,4.08-.95,5.97-1.34,1.77-.59,3.48-1.02,4.91-1.55,1.38-.61,2.7-1.02,3.69-1.49,1.92-1,3.12-1.57,3.12-1.57l.23-.11c.79-.37,1.74-.03,2.11,.76,.27,.58,.16,1.24-.23,1.7,0,0-.92,1.06-2.7,2.91-1.87,1.69-4.76,3.88-8.57,5.85-1.93,.83-4,2.01-6.33,2.69-2.29,.82-4.74,1.64-7.32,2.15-2.58,.66-5.27,1.01-8.03,1.43-2.76,.18-5.57,.52-8.39,.47-2.82,.09-5.63-.18-8.41-.42-2.77-.22-5.47-.82-8.07-1.34-2.58-.68-5.08-1.24-7.35-2.22-1.14-.44-2.25-.87-3.32-1.28-1.03-.53-2.02-1.05-2.98-1.54-1.9-.91-3.6-2.03-5.05-3.12-1.5-1.01-2.68-1.95-3.46-2.81-1.69-1.67-2.62-2.67-2.62-2.67-.6-.66-.56-1.68,.1-2.29,.47-.44,1.15-.53,1.71-.3Z"/></g></g></svg>