<?xml version="1.0" encoding="UTF-8"?><svg id="Ebene_2" xmlns="http://www.w3.org/2000/svg" xmlns:xlink="http://www.w3.org/1999/xlink" viewBox="0 0 8639.99 1587.18"><defs><style>.cls-1{fill:#735ea5;}.cls-2{fill:#604897;}.cls-3{clip-path:url(#clippath);}.cls-4{fill:none;}</style><clipPath id="clippath"><rect class="cls-4" width="8639.99" height="1587.18"/></clipPath></defs><g id="Ebene_1-2"><g class="cls-3"><path class="cls-2" d="M1890.32,1167.1c-71.73,0-135.69-16.32-191.76-49.08-56.07-32.76-100.05-77.17-131.91-133.25-31.76-56.07-47.75-119.48-47.75-190.43s15.66-137.24,47.08-193.76c31.42-56.52,74.51-100.71,129.25-132.58,54.74-31.87,117.48-47.75,188.32-47.75,52.97,0,101.38,10.1,145.35,30.31,43.97,20.21,83.5,50.41,118.48,90.83,12.55,14.32,16.99,29.09,13.44,44.42-3.55,15.21-13.44,28.65-29.65,40.31-12.55,8.99-26.43,11.99-41.64,8.77-15.32-3.11-29.2-10.99-41.75-23.54-43.97-46.64-98.71-69.95-164.23-69.95-45.75,0-86.05,10.55-121.03,31.53-34.98,21.21-62.4,50.52-82.17,88.16-19.65,37.75-29.54,82.17-29.54,133.25s10.1,91.5,30.31,129.25c20.1,37.64,48.19,67.51,84.06,89.39,35.87,22.1,77.62,33.09,125.14,33.09,31.42,0,58.96-3.89,82.72-11.44,23.76-7.66,45.53-19.54,65.29-35.75,14.32-11.66,29.2-18.1,44.42-19.43,15.21-1.44,28.65,2.89,40.42,12.77,15.21,12.55,23.76,26.65,25.54,42.42,1.78,15.66-3.66,29.76-16.21,42.31-64.51,60.07-145.24,90.16-242.17,90.16"/><path class="cls-2" d="M2699.06,1046.07c46.64,0,87.94-10.77,123.81-32.31,35.87-21.54,63.96-51.19,84.06-88.83,20.21-37.75,30.31-81.28,30.31-130.58s-10.1-93.05-30.31-131.25c-20.1-38.09-48.19-67.84-84.06-89.39-35.87-21.54-77.17-32.31-123.81-32.31s-87.94,10.77-123.81,32.31c-35.87,21.54-64.18,51.3-84.72,89.39-20.65,38.2-30.98,81.95-30.98,131.25s10.33,92.83,30.98,130.58c20.54,37.64,48.86,67.29,84.72,88.83,35.87,21.54,77.17,32.31,123.81,32.31m0,121.03c-72.62,0-136.8-15.88-192.43-47.75-55.63-31.87-99.38-75.84-131.25-131.91-31.76-56.07-47.75-120.37-47.75-193.1s15.99-138.35,47.75-194.43c31.87-56.07,75.62-100.05,131.25-131.91,55.63-31.87,119.81-47.75,192.43-47.75s135.47,15.88,191.1,47.75c55.63,31.87,99.38,75.84,131.14,131.91,31.87,56.07,47.86,120.92,47.86,194.43s-15.77,137.02-47.08,193.1c-31.42,56.07-74.95,100.05-130.58,131.91-55.63,31.87-119.81,47.75-192.43,47.75"/><path class="cls-2" d="M3607.36,1046.07c45.75,0,86.61-10.99,122.47-33.09,35.87-21.87,64.07-52.19,84.72-90.83,20.65-38.53,30.98-81.5,30.98-129.14s-10.33-91.5-30.98-129.14c-20.65-37.75-48.86-67.51-84.72-89.5-35.87-21.99-76.73-32.98-122.47-32.98s-85.5,10.99-121.81,32.98c-36.31,21.99-65.07,51.74-86.05,89.5-21.1,37.64-31.65,80.72-31.65,129.14s10.55,90.61,31.65,129.14c20.99,38.64,49.75,68.95,86.05,90.83,36.31,22.1,76.95,33.09,121.81,33.09m0,121.03c-69.95,0-133.02-16.32-189.1-49.08-56.07-32.76-100.49-77.39-133.25-133.91-32.65-56.52-49.08-120.14-49.08-191.1s14.99-134.36,45.08-190.43c30.09-55.96,71.06-100.38,123.14-133.25,51.97-32.65,110.82-49.08,176.33-49.08,52.85,0,101.71,10.99,146.68,32.98,44.75,21.99,82.5,51.85,113.04,89.5V179.42c0-20.65,6.44-37.2,19.43-49.75,12.99-12.66,29.43-18.88,49.19-18.88s37.2,6.22,49.75,18.88c12.55,12.55,18.88,29.09,18.88,49.75V793.01c0,70.95-16.43,134.58-49.19,191.1-32.76,56.52-76.95,101.16-132.47,133.91-55.63,32.76-118.48,49.08-188.43,49.08"/><path class="cls-2" d="M4565.45,1167.1c-74.51,0-140.57-15.88-198.54-47.75-57.85-31.87-103.15-75.84-135.91-131.91-32.76-56.07-49.08-120.37-49.08-193.1s15.43-138.35,46.41-194.43c30.98-56.07,73.84-100.05,128.58-131.91,54.63-31.87,117.48-47.75,188.32-47.75s130.14,15.55,180.33,46.41c50.3,30.98,88.61,73.62,115.04,127.92,26.43,54.3,39.75,116.81,39.75,187.65,0,16.99-5.89,31.2-17.54,42.42-11.66,11.21-26.43,16.77-44.41,16.77h-542.31v-107.6h538.31l-55.19,37.64c-.89-44.86-9.88-84.94-26.87-120.37-17.1-35.53-41.31-63.51-72.73-84.17-31.42-20.65-69.51-30.98-114.37-30.98-51.08,0-94.83,11.21-131.14,33.76-36.42,22.32-63.96,53.08-82.83,92.16-18.77,38.97-28.2,83.17-28.2,132.47s11.22,93.27,33.64,131.91c22.43,38.53,53.3,69.07,92.83,91.5,39.42,22.43,84.72,33.64,135.91,33.64,27.76,0,56.3-5.11,85.5-15.43,29.09-10.33,52.63-22.21,70.62-35.64,13.44-9.88,27.98-15.1,43.75-15.55,15.66-.44,29.31,4.22,40.97,14.1,15.32,13.44,23.32,28.31,24.21,44.42,.89,16.21-6.22,30.09-21.43,41.75-30.54,24.21-68.51,43.97-113.81,59.18-45.3,15.32-88.5,22.87-129.8,22.87"/><path class="cls-1" d="M5203.27,1161.74c-34.09,0-64.4-9.44-90.83-28.2-26.43-18.88-47.08-44.86-61.85-78.17-14.88-33.09-22.21-71.73-22.21-115.7V151.18c0-12.55,3.78-22.43,11.44-29.65,7.55-7.11,17.21-10.77,28.87-10.77,12.55,0,22.43,3.66,29.65,10.77,7.11,7.22,10.77,17.1,10.77,29.65V939.66c0,41.31,8.66,75.17,26.21,101.71,17.54,26.43,40.08,39.64,67.96,39.64h33.64c9.88,0,17.88,3.55,24.21,10.77,6.33,7.22,9.44,16.99,9.44,29.54,0,11.77-3.55,21.43-10.77,28.98-7.22,7.66-17.1,11.44-29.65,11.44h-26.87Z"/><path class="cls-1" d="M6049.72,1161.7c-11.77,0-21.32-3.78-28.98-11.44-7.66-7.55-11.44-17.21-11.44-28.98v-246.17l25.54-80.72h55.19v326.9c0,11.77-3.55,21.43-10.77,28.98-7.22,7.66-16.99,11.44-29.54,11.44m-335.11-67.29c56.52,0,106.93-13.21,151.34-39.64,44.41-26.43,79.39-62.4,105.04-107.71,25.54-45.3,38.31-96.16,38.31-152.68s-12.77-108.82-38.31-154.12c-25.65-45.3-60.63-81.17-105.04-107.6-44.42-26.54-94.83-39.75-151.34-39.75s-105.93,13.21-150.68,39.75c-44.86,26.43-80.28,62.29-106.37,107.6-25.98,45.3-38.97,96.71-38.97,154.12s12.99,107.37,38.97,152.68c26.09,45.3,61.52,81.28,106.37,107.71,44.75,26.43,95.05,39.64,150.68,39.64m0,75.39c-71.73,0-136.13-16.32-193.1-49.08-56.96-32.76-101.82-77.62-134.58-134.58-32.76-56.96-49.08-120.92-49.08-191.76s16.32-136.13,49.08-193.1c32.76-56.96,77.62-101.82,134.58-134.58,56.96-32.76,121.36-49.08,193.1-49.08s135.91,16.32,192.43,49.08c56.52,32.76,101.16,77.62,133.91,134.58,32.76,56.96,49.08,121.36,49.08,193.1l-33.64,53.85c0,60.96-14.99,115.7-45.08,164.11-30.09,48.52-70.62,86.83-121.81,115.04-51.08,28.31-109.37,42.42-174.88,42.42"/><path class="cls-1" d="M6928.4,1161.74c-11.66,0-21.32-3.78-28.98-11.44-7.66-7.55-11.44-17.21-11.44-28.98v-361.98c0-59.18-11.44-108.04-34.31-146.57-22.87-38.64-53.85-67.51-92.83-86.83-39.09-19.32-83.28-28.98-132.58-28.98s-91.94,9.22-130.47,27.65c-38.64,18.32-69.18,43.75-91.5,75.95-22.54,32.31-33.76,68.62-33.76,109.04h-67.18c3.55-55.63,20.1-105.6,49.74-150.01,29.65-44.42,68.18-79.39,115.7-105.04,47.52-25.54,100.05-38.31,157.45-38.31,64.62,0,122.7,13.21,174.33,39.75,51.52,26.43,92.16,64.96,121.7,115.7,29.65,50.74,44.42,113.26,44.42,187.65v361.98c0,11.77-3.78,21.43-11.44,28.98-7.66,7.66-17.32,11.44-28.87,11.44m-596.16,0c-11.66,0-21.32-3.78-28.98-11.44-7.55-7.55-11.44-17.21-11.44-28.98V465.97c0-12.44,3.89-22.32,11.44-29.54,7.66-7.22,17.32-10.77,28.98-10.77,12.55,0,22.43,3.55,29.65,10.77,7.11,7.22,10.66,17.1,10.66,29.54v655.35c0,11.77-3.55,21.43-10.66,28.98-7.22,7.66-17.1,11.44-29.65,11.44"/><path class="cls-1" d="M7523.12,1169.81c-69.95,0-132.58-16.54-187.77-49.75-55.08-33.2-98.6-78.06-130.47-134.58-31.87-56.52-47.75-120.25-47.75-191.1s14.77-135.91,44.42-192.43c29.54-56.52,70.4-101.16,122.36-133.91,52.08-32.76,111.7-49.08,178.99-49.08,57.41,0,109.93,10.99,157.45,32.98,47.52,21.99,88.83,55.41,123.81,100.27,7.22,8.88,9.88,18.32,8.11,28.2-1.89,9.88-7.66,17.99-17.54,24.21-8.11,6.33-16.99,8.77-26.87,7.44-9.88-1.33-18.43-6.55-25.65-15.55-57.41-68.07-130.47-102.16-219.3-102.16-52.96,0-99.38,12.99-139.24,38.97-39.97,25.98-70.84,61.4-92.83,106.26-21.99,44.86-32.98,96.49-32.98,154.79s12.1,107.37,36.31,152.68c24.21,45.3,57.63,81.28,100.27,107.71,42.53,26.43,92.16,39.64,148.68,39.64,36.75,0,71.51-5.33,104.26-16.1,32.76-10.77,61.29-27.32,85.5-49.75,7.99-7.22,16.99-11.33,26.87-12.1,9.88-1,18.43,2.22,25.54,9.33,8.99,8.11,13.77,17.32,14.21,27.65,.44,10.33-3.44,19.1-11.44,26.21-65.51,60.07-147.24,90.16-244.95,90.16"/><path class="cls-1" d="M8321.08,1168.45c-70.84,0-133.91-15.88-189.1-47.75-55.19-31.87-98.38-76.06-129.8-132.58-31.42-56.52-47.08-121.03-47.08-193.76s14.77-138.35,44.42-194.43c29.54-56.07,70.4-100.27,122.36-132.58,52.08-32.2,111.7-48.41,178.99-48.41s125.14,15.43,176.33,46.41c51.08,30.98,91.05,73.62,119.7,127.8,28.76,54.3,43.08,116.92,43.08,187.77,0,11.66-3.55,20.88-10.77,27.54-7.22,6.77-16.54,10.1-28.2,10.1h-592.17v-69.95h613.71l-59.29,44.42c1.89-58.29-8-109.93-29.54-154.79-21.54-44.86-52.3-80.06-92.16-105.6-39.97-25.54-86.83-38.31-140.69-38.31-51.08,0-96.6,12.77-136.58,38.31-39.86,25.54-71.29,60.74-94.16,105.6-22.87,44.86-34.31,96.94-34.31,156.12s12.1,109.93,36.31,154.68c24.21,44.97,57.85,80.17,100.93,105.71,43.08,25.65,92.38,38.31,148.01,38.31,34.98,0,70.18-6,105.6-18.1,35.42-12.1,63.51-28.09,84.17-47.75,7.11-7.22,15.88-10.99,26.21-11.44,10.33-.44,19.1,2.44,26.21,8.66,9.88,8.11,15.1,17.1,15.55,26.98,.44,9.88-3.89,18.77-12.77,26.87-28.76,25.98-66.18,47.52-112.37,64.62-46.3,16.99-90.38,25.54-132.58,25.54"/><path class="cls-2" d="M70.74,1008.24l208.97,120.03L650.25,483.14c9.22-16.21,3.66-36.75-12.44-45.97l-150.57-86.5c-16.1-9.22-36.64-3.78-45.97,12.33-123.47,215.08-247.06,430.16-370.53,645.24"/><path class="cls-1" d="M1078.64,1587.18l-798.92-458.92-208.97-120.03-52.74,91.94c-37.2,64.62-14.88,147.13,49.75,184.21l91.94,52.85,435.16,249.95h483.79Z"/><path class="cls-2" d="M1078.6,578.89l-208.97-120.03-373.87,650.91c-7.44,12.99-3,29.43,9.99,36.86l162.12,93.16c12.88,7.44,29.43,3,36.86-9.99l373.87-650.91Z"/><path class="cls-1" d="M1103.8,318.65c-6.77-5.88-14.1-11.33-22.21-15.88L554.49-.03H70.7L869.62,458.89l208.97,120.03,52.85-91.94c4.55-8.11,8.33-16.43,11.1-24.87,2.78-8.55,4.77-17.21,5.77-25.87,.56-4.44,.89-8.77,1-13.1,.89-39.2-15.32-77.73-45.53-104.49"/></g></g></svg>