<?xml version="1.0" encoding="UTF-8"?><svg id="Ebene_2" xmlns="http://www.w3.org/2000/svg" viewBox="0 0 700.5 129.59"><defs><style>.cls-1{fill:#2c3359;}.cls-2{fill:#232947;}</style></defs><g id="Ebene_1-2"><g><g><path class="cls-2" d="M153.65,95.06c-5.82,0-10.99-1.32-15.54-3.98-4.54-2.65-8.11-6.25-10.68-10.79-2.58-4.54-3.87-9.68-3.87-15.43s1.27-11.12,3.82-15.7c2.54-4.58,6.03-8.16,10.47-10.74,4.43-2.58,9.52-3.87,15.26-3.87,4.29,0,8.21,.82,11.77,2.45,3.56,1.64,6.76,4.09,9.59,7.36,1.02,1.16,1.38,2.36,1.09,3.6-.29,1.24-1.09,2.33-2.4,3.27-1.02,.73-2.14,.96-3.38,.71-1.24-.25-2.36-.89-3.38-1.91-3.56-3.78-8-5.67-13.3-5.67-3.71,0-6.98,.85-9.81,2.56-2.83,1.71-5.05,4.09-6.65,7.14-1.6,3.05-2.4,6.65-2.4,10.79,0,3.92,.82,7.41,2.45,10.46,1.64,3.05,3.91,5.47,6.81,7.25,2.91,1.78,6.29,2.67,10.14,2.67,2.54,0,4.78-.31,6.71-.93,1.92-.62,3.69-1.58,5.29-2.89,1.16-.94,2.36-1.47,3.6-1.58,1.24-.11,2.33,.24,3.27,1.04,1.23,1.02,1.93,2.16,2.07,3.43,.14,1.27-.29,2.42-1.31,3.43-5.23,4.87-11.77,7.3-19.62,7.3Z"/><path class="cls-2" d="M219.17,95.06c-5.89,0-11.08-1.29-15.59-3.87-4.51-2.58-8.05-6.14-10.63-10.69-2.58-4.54-3.87-9.76-3.87-15.64s1.29-11.21,3.87-15.75c2.58-4.54,6.12-8.1,10.63-10.69,4.51-2.58,9.7-3.87,15.59-3.87s10.97,1.29,15.48,3.87c4.51,2.58,8.05,6.14,10.63,10.69,2.58,4.54,3.87,9.8,3.87,15.75s-1.27,11.1-3.82,15.64c-2.55,4.54-6.07,8.11-10.58,10.69-4.51,2.58-9.7,3.87-15.59,3.87Zm0-9.81c3.78,0,7.12-.87,10.03-2.62,2.91-1.74,5.18-4.14,6.81-7.2,1.64-3.05,2.45-6.58,2.45-10.57s-.82-7.54-2.45-10.63c-1.64-3.09-3.91-5.51-6.81-7.25-2.91-1.74-6.25-2.62-10.03-2.62s-7.12,.87-10.03,2.62c-2.91,1.74-5.2,4.16-6.87,7.25-1.67,3.09-2.51,6.63-2.51,10.63s.83,7.52,2.51,10.57c1.67,3.05,3.96,5.45,6.87,7.2,2.91,1.74,6.25,2.62,10.03,2.62Z"/><path class="cls-2" d="M292.76,95.06c-5.67,0-10.78-1.32-15.32-3.98-4.54-2.65-8.14-6.27-10.79-10.85-2.65-4.58-3.98-9.74-3.98-15.48s1.22-10.88,3.65-15.43c2.43-4.54,5.76-8.14,9.98-10.79,4.21-2.65,8.98-3.98,14.28-3.98,4.29,0,8.25,.89,11.88,2.67,3.63,1.78,6.69,4.2,9.16,7.25V15.04c0-1.67,.53-3.02,1.58-4.03,1.05-1.02,2.38-1.53,3.98-1.53s3.02,.51,4.03,1.53c1.02,1.02,1.53,2.36,1.53,4.03v49.71c0,5.74-1.33,10.9-3.98,15.48-2.65,4.58-6.23,8.2-10.74,10.85-4.51,2.65-9.59,3.98-15.26,3.98Zm0-9.81c3.71,0,7.01-.89,9.92-2.67,2.91-1.78,5.2-4.23,6.87-7.36,1.67-3.12,2.51-6.61,2.51-10.47s-.84-7.41-2.51-10.47c-1.67-3.05-3.96-5.47-6.87-7.25-2.91-1.78-6.21-2.67-9.92-2.67s-6.92,.89-9.87,2.67c-2.94,1.78-5.27,4.2-6.98,7.25-1.71,3.05-2.56,6.54-2.56,10.47s.85,7.34,2.56,10.47c1.71,3.13,4.03,5.58,6.98,7.36,2.94,1.78,6.23,2.67,9.87,2.67Z"/><path class="cls-2" d="M370.38,95.06c-6.03,0-11.39-1.29-16.08-3.87-4.69-2.58-8.36-6.14-11.01-10.69-2.65-4.54-3.98-9.76-3.98-15.64s1.25-11.21,3.76-15.75c2.51-4.54,5.98-8.1,10.41-10.69,4.43-2.58,9.52-3.87,15.26-3.87s10.54,1.25,14.61,3.76c4.07,2.51,7.18,5.96,9.32,10.36,2.14,4.4,3.22,9.47,3.22,15.21,0,1.38-.47,2.53-1.42,3.43-.95,.91-2.14,1.36-3.6,1.36h-43.94v-8.72h43.61l-4.47,3.05c-.07-3.63-.8-6.88-2.18-9.76-1.38-2.87-3.34-5.14-5.89-6.81-2.54-1.67-5.63-2.51-9.27-2.51-4.14,0-7.69,.91-10.63,2.73-2.94,1.82-5.18,4.31-6.7,7.47-1.53,3.16-2.29,6.74-2.29,10.74s.91,7.56,2.73,10.68c1.82,3.13,4.32,5.6,7.52,7.41,3.2,1.82,6.87,2.73,11.01,2.73,2.25,0,4.56-.42,6.92-1.25,2.36-.84,4.27-1.8,5.72-2.89,1.09-.8,2.27-1.22,3.54-1.25,1.27-.04,2.38,.35,3.33,1.14,1.23,1.09,1.89,2.29,1.96,3.6,.07,1.31-.51,2.44-1.74,3.38-2.47,1.96-5.54,3.56-9.21,4.8-3.67,1.24-7.18,1.85-10.52,1.85Z"/><path class="cls-1" d="M422.06,94.62c-2.76,0-5.22-.76-7.36-2.29-2.14-1.53-3.82-3.63-5.02-6.32-1.2-2.69-1.8-5.81-1.8-9.38V12.75c0-1.02,.31-1.82,.93-2.4,.62-.58,1.4-.87,2.34-.87,1.02,0,1.82,.29,2.4,.87,.58,.58,.87,1.38,.87,2.4v63.89c0,3.34,.71,6.09,2.13,8.23s3.25,3.22,5.51,3.22h2.73c.8,0,1.45,.29,1.96,.87,.51,.58,.76,1.38,.76,2.4,0,.95-.29,1.73-.87,2.35-.58,.62-1.38,.93-2.4,.93h-2.18Z"/><path class="cls-1" d="M463.49,95.28c-5.82,0-11.03-1.33-15.64-3.98-4.62-2.65-8.25-6.29-10.9-10.9-2.65-4.62-3.98-9.79-3.98-15.54s1.32-11.03,3.98-15.64c2.65-4.62,6.29-8.25,10.9-10.9,4.62-2.65,9.83-3.98,15.64-3.98s11.01,1.33,15.59,3.98c4.58,2.65,8.19,6.29,10.85,10.9,2.65,4.62,3.98,9.83,3.98,15.64l-2.73,4.36c0,4.94-1.22,9.38-3.65,13.3-2.44,3.93-5.72,7.03-9.87,9.32-4.14,2.29-8.87,3.44-14.17,3.44Zm0-6.11c4.58,0,8.67-1.07,12.26-3.22,3.6-2.14,6.43-5.05,8.5-8.72,2.07-3.67,3.11-7.8,3.11-12.37s-1.04-8.81-3.11-12.48c-2.07-3.67-4.91-6.58-8.5-8.72-3.6-2.14-7.69-3.22-12.26-3.22s-8.58,1.07-12.21,3.22c-3.63,2.15-6.5,5.05-8.61,8.72-2.11,3.67-3.16,7.83-3.16,12.48s1.05,8.7,3.16,12.37c2.11,3.67,4.98,6.58,8.61,8.72,3.63,2.14,7.7,3.22,12.21,3.22Zm27.15,5.45c-.94,0-1.73-.31-2.34-.93-.62-.62-.93-1.4-.93-2.35v-19.95l2.07-6.54h4.47v26.49c0,.95-.29,1.73-.87,2.35-.58,.62-1.38,.93-2.4,.93Z"/><path class="cls-1" d="M513.53,94.62c-.95,0-1.73-.31-2.35-.93-.62-.62-.93-1.4-.93-2.35V38.26c0-1.02,.31-1.82,.93-2.4,.62-.58,1.4-.87,2.35-.87,1.02,0,1.82,.29,2.4,.87,.58,.58,.87,1.38,.87,2.4v53.09c0,.95-.29,1.73-.87,2.35-.58,.62-1.38,.93-2.4,.93Zm48.3,0c-.94,0-1.73-.31-2.34-.93-.62-.62-.93-1.4-.93-2.35v-29.33c0-4.8-.93-8.76-2.78-11.88-1.85-3.12-4.36-5.47-7.52-7.03-3.16-1.56-6.74-2.34-10.74-2.34s-7.45,.75-10.58,2.23c-3.13,1.49-5.6,3.54-7.41,6.16-1.82,2.62-2.73,5.56-2.73,8.83h-5.45c.29-4.51,1.64-8.56,4.03-12.16,2.4-3.6,5.52-6.43,9.38-8.5,3.85-2.07,8.1-3.11,12.76-3.11,5.23,0,9.94,1.07,14.12,3.22,4.18,2.14,7.47,5.27,9.87,9.38,2.4,4.11,3.6,9.18,3.6,15.21v29.33c0,.95-.31,1.73-.93,2.35s-1.4,.93-2.34,.93Z"/><path class="cls-1" d="M610.01,95.28c-5.67,0-10.74-1.34-15.21-4.03-4.47-2.69-8-6.32-10.58-10.9-2.58-4.58-3.87-9.74-3.87-15.48s1.2-11.01,3.6-15.59c2.4-4.58,5.7-8.19,9.92-10.85,4.21-2.65,9.05-3.98,14.5-3.98,4.65,0,8.9,.89,12.76,2.67,3.85,1.78,7.2,4.49,10.03,8.12,.58,.73,.8,1.49,.65,2.29-.15,.8-.62,1.46-1.42,1.96-.66,.51-1.38,.71-2.18,.6-.8-.11-1.49-.53-2.07-1.25-4.65-5.52-10.57-8.29-17.77-8.29-4.29,0-8.05,1.05-11.28,3.16-3.24,2.11-5.74,4.98-7.52,8.61-1.78,3.63-2.67,7.81-2.67,12.54s.98,8.7,2.94,12.37c1.96,3.67,4.67,6.58,8.12,8.72,3.45,2.14,7.47,3.22,12.05,3.22,2.98,0,5.8-.44,8.45-1.31,2.65-.87,4.96-2.22,6.92-4.03,.66-.58,1.38-.91,2.18-.98,.8-.07,1.49,.18,2.07,.76,.72,.65,1.11,1.4,1.14,2.23,.04,.84-.27,1.55-.93,2.13-5.31,4.87-11.92,7.3-19.84,7.3Z"/><path class="cls-1" d="M674.66,95.17c-5.74,0-10.85-1.29-15.32-3.87-4.47-2.58-7.98-6.16-10.52-10.74-2.54-4.58-3.82-9.81-3.82-15.7s1.2-11.21,3.6-15.75c2.4-4.54,5.7-8.12,9.92-10.74,4.21-2.62,9.05-3.93,14.5-3.93s10.14,1.25,14.28,3.76c4.14,2.51,7.38,5.96,9.7,10.36,2.32,4.4,3.49,9.47,3.49,15.21,0,.95-.29,1.69-.87,2.24-.58,.54-1.35,.82-2.29,.82h-47.97v-5.67h49.71l-4.8,3.6c.14-4.72-.66-8.9-2.4-12.54-1.74-3.63-4.24-6.49-7.47-8.56-3.23-2.07-7.03-3.11-11.39-3.11s-7.83,1.04-11.07,3.11c-3.23,2.07-5.78,4.93-7.63,8.56-1.85,3.63-2.78,7.85-2.78,12.65s.98,8.9,2.94,12.54c1.96,3.64,4.69,6.49,8.18,8.56,3.49,2.07,7.49,3.11,11.99,3.11,2.83,0,5.69-.49,8.56-1.47,2.87-.98,5.14-2.27,6.81-3.87,.58-.58,1.29-.89,2.13-.93,.84-.04,1.54,.2,2.13,.71,.8,.65,1.22,1.38,1.25,2.18,.04,.8-.31,1.53-1.04,2.18-2.33,2.11-5.36,3.85-9.1,5.23-3.74,1.38-7.32,2.07-10.74,2.07Z"/></g><g><g><path class="cls-2" d="M23.16,92.16s-.09-.01-.12-.03l-16.93-9.72c-.12-.07-.16-.22-.09-.34L36.04,29.79c.53-.92,1.52-1.49,2.58-1.49,.52,0,1.03,.14,1.48,.4l12.2,7.01c1.42,.82,1.91,2.64,1.1,4.06l-30.02,52.27c-.03,.06-.09,.1-.15,.12-.02,0-.04,0-.07,0Z"/><path class="cls-2" d="M38.62,28.55c.46,0,.93,.12,1.35,.36l12.2,7.01c1.3,.75,1.75,2.41,1.01,3.72l-30.02,52.27-16.93-9.72c10.01-17.42,20.02-34.85,30.02-52.27,.5-.88,1.42-1.37,2.36-1.37m0-.5c-1.15,0-2.22,.62-2.8,1.62L5.79,81.94c-.07,.11-.08,.25-.05,.38,.03,.13,.12,.24,.23,.3l16.93,9.72c.08,.05,.16,.07,.25,.07,.17,0,.34-.09,.43-.25l30.02-52.27c.43-.75,.54-1.62,.32-2.45-.22-.83-.76-1.53-1.51-1.95l-12.2-7.01c-.49-.28-1.04-.43-1.6-.43h0Z"/></g><g><path class="cls-1" d="M48.62,129.34L5.86,104.78c-5.35-3.07-7.2-9.92-4.13-15.27l4.4-7.66,82.69,47.5H48.62Z"/><path class="cls-1" d="M6.23,82.19l16.93,9.72,64.73,37.18H48.69L13.43,108.84l-7.45-4.28c-5.24-3.01-7.04-9.69-4.04-14.93l4.28-7.45m-.18-.68l-.25,.43-4.28,7.45c-3.14,5.47-1.25,12.47,4.22,15.61l7.45,4.28,35.26,20.25,.12,.07h41.2l-1.63-.93L23.4,91.48l-16.93-9.72-.43-.25h0Z"/></g><g><path class="cls-2" d="M55.69,101.49c-.42,0-.84-.11-1.21-.32l-13.13-7.54c-.56-.33-.97-.85-1.14-1.48s-.08-1.29,.24-1.85l30.29-52.74c.05-.08,.13-.13,.22-.13,.04,0,.09,.01,.12,.03l16.93,9.72c.06,.03,.1,.09,.12,.15,.02,.06,0,.13-.02,.19l-30.29,52.74c-.43,.76-1.25,1.22-2.12,1.22h0Z"/><path class="cls-2" d="M70.96,37.68l16.93,9.72c-10.1,17.58-20.19,35.16-30.29,52.74-.4,.7-1.14,1.1-1.9,1.1-.37,0-.74-.09-1.09-.29l-13.13-7.54c-1.05-.6-1.41-1.94-.81-2.99l30.29-52.74m0-.5c-.17,0-.34,.09-.43,.25l-30.29,52.74c-.74,1.29-.29,2.93,.99,3.67l13.13,7.54c.41,.23,.87,.36,1.34,.36,.96,0,1.86-.52,2.33-1.35l15.97-27.8,14.32-24.94c.07-.11,.08-.25,.05-.38-.03-.13-.12-.24-.23-.3l-16.93-9.72c-.08-.05-.16-.07-.25-.07h0Z"/></g><g><path class="cls-1" d="M5.29,.25H45.49l42.76,24.56c.66,.38,1.28,.82,1.84,1.32,2.48,2.19,3.85,5.34,3.77,8.66,0,.36-.04,.72-.08,1.08-.09,.73-.25,1.45-.48,2.15-.24,.71-.55,1.41-.93,2.07l-4.4,7.66L5.29,.25Z"/><path class="cls-1" d="M45.42,.5l42.7,24.53c.65,.38,1.26,.81,1.8,1.29,2.45,2.16,3.76,5.29,3.69,8.46,0,.35-.03,.71-.08,1.06-.09,.71-.24,1.41-.47,2.1-.23,.69-.53,1.37-.91,2.02l-4.28,7.45-16.93-9.72L6.23,.5H45.42m.13-.5H4.35l1.63,.93L70.71,38.11l16.93,9.72,.43,.25,.25-.43,4.28-7.45c.39-.67,.7-1.38,.95-2.11,.24-.71,.4-1.45,.49-2.19,.04-.37,.07-.74,.08-1.11,.08-3.39-1.32-6.61-3.86-8.85-.58-.51-1.21-.96-1.88-1.35L45.67,.07l-.12-.07h0Z"/></g></g></g></g></svg>